<?xml version="1.0" encoding="UTF-8"?>
<svg enable-background="new 0 0 1280 720" viewBox="0 0 1280 720" xmlns="http://www.w3.org/2000/svg">
 <path d="m1 0h1280v720h-1280z" fill="#7ccce8"/>
 <path d="m1309.1 548.64h-1308.3s-0.764-17.558 0.236-79.055c774.47-13.5 701.23-318.72 1308.3-77.996 1.963 25.499-0.236 157.05-0.236 157.05z" fill="#397243"/>
 <path d="m1290.2 753.07h-1314.8s-0.778-358.48 0.222-419.98c423.28-177.48 711.03 157.49 1314.8 208.49-1 149.04-0.222 211.49-0.222 211.49z" fill="#3b8c4b"/>
 <g fill="#fff">
  <path d="m493.79 71.489a35.248 26.623 0 1 0 -70.496 0 35.248 26.623 0 1 0 70.496 0" stroke="#a1c9e2"/>
  <path d="m538.3 65.115a35.248 26.623 0 1 0 -70.496 0 35.248 26.623 0 1 0 70.496 0" stroke="#a1c9e2"/>
  <path d="m622.03 91.738a128.24 33.748 0 1 0 -256.49 0 128.24 33.748 0 1 0 256.49 0"/>
  <path d="m577.54 74.489a35.248 26.623 0 1 0 -70.496 0 35.248 26.623 0 1 0 70.496 0" stroke="#a1c9e2"/>
  <path d="m629.94 84.614a35.248 26.623 0 1 0 -70.496 0 35.248 26.623 0 1 0 70.496 0" stroke="#a1c9e2"/>
  <path d="m436.04 74.489a35.248 26.623 0 1 0 -70.496 0 35.248 26.623 0 1 0 70.496 0" stroke="#a1c9e2"/>
  <path d="m410.3 94.25a35.248 26.623 0 1 0 -70.496 0 35.248 26.623 0 1 0 70.496 0" stroke="#a1c9e2"/>
  <path d="m458.54 111.24a35.248 26.623 0 1 0 -70.496 0 35.248 26.623 0 1 0 70.496 0" stroke="#a1c9e2"/>
  <path d="m509.54 115.86a35.248 26.623 0 1 0 -70.496 0 35.248 26.623 0 1 0 70.496 0" stroke="#a1c9e2"/>
  <path d="m573.54 111.24a35.248 26.623 0 1 0 -70.496 0 35.248 26.623 0 1 0 70.496 0" stroke="#a1c9e2"/>
  <path d="m608.79 111.24a35.248 26.623 0 1 0 -70.496 0 35.248 26.623 0 1 0 70.496 0" stroke="#a1c9e2"/>
  <path d="m617.03 91.25a128.24 33.748 0 1 0 -256.49 0 128.24 33.748 0 1 0 256.49 0"/>
  <path d="m867.8 146.75a35.249 26.623 0 1 0 -70.498 0 35.249 26.623 0 1 0 70.498 0" stroke="#a1c9e2"/>
  <path d="m912.3 140.37a35.249 26.623 0 1 0 -70.498 0 35.249 26.623 0 1 0 70.498 0" stroke="#a1c9e2"/>
  <path d="m996.04 167a128.24 33.748 0 1 0 -256.49 0 128.24 33.748 0 1 0 256.49 0"/>
  <path d="m951.55 149.75a35.249 26.623 0 1 0 -70.498 0 35.249 26.623 0 1 0 70.498 0" stroke="#a1c9e2"/>
  <path d="m1004 159.87a35.249 26.623 0 1 0 -70.498 0 35.249 26.623 0 1 0 70.498 0" stroke="#a1c9e2"/>
  <path d="m810.05 149.75a35.248 26.623 0 1 0 -70.496 0 35.248 26.623 0 1 0 70.496 0" stroke="#a1c9e2"/>
  <path d="m784.31 169.51a35.249 26.623 0 1 0 -70.498 0 35.249 26.623 0 1 0 70.498 0" stroke="#a1c9e2"/>
  <path d="m832.55 186.49a35.249 26.623 0 1 0 -70.498 0 35.249 26.623 0 1 0 70.498 0" stroke="#a1c9e2"/>
  <path d="m883.55 191.12a35.249 26.623 0 1 0 -70.498 0 35.249 26.623 0 1 0 70.498 0" stroke="#a1c9e2"/>
  <path d="m947.55 186.5a35.248 26.623 0 1 0 -70.496 0 35.248 26.623 0 1 0 70.496 0" stroke="#a1c9e2"/>
  <path d="m982.8 186.49a35.248 26.623 0 1 0 -70.496 0 35.248 26.623 0 1 0 70.496 0" stroke="#a1c9e2"/>
  <path d="m991.04 166.51a128.24 33.748 0 1 0 -256.49 0 128.24 33.748 0 1 0 256.49 0"/>
  <path d="m1202.5 62.616a35.248 26.623 0 1 0 -70.496 0 35.248 26.623 0 1 0 70.496 0" stroke="#a1c9e2"/>
  <path d="m1247 56.242a35.248 26.623 0 1 0 -70.496 0 35.248 26.623 0 1 0 70.496 0" stroke="#a1c9e2"/>
  <path d="m1330.8 82.865a128.24 33.748 0 1 0 -256.49 0 128.24 33.748 0 1 0 256.49 0"/>
  <path d="m1286.3 65.616a35.248 26.623 0 1 0 -70.496 0 35.248 26.623 0 1 0 70.496 0" stroke="#a1c9e2"/>
  <path d="m1338.7 75.741a35.248 26.623 0 1 0 -70.496 0 35.248 26.623 0 1 0 70.496 0" stroke="#a1c9e2"/>
  <path d="m1144.8 65.616a35.248 26.623 0 1 0 -70.496 0 35.248 26.623 0 1 0 70.496 0" stroke="#a1c9e2"/>
  <path d="m1119 85.376a35.248 26.623 0 1 0 -70.496 0 35.248 26.623 0 1 0 70.496 0" stroke="#a1c9e2"/>
  <path d="m1167.3 102.36a35.249 26.623 0 1 0 -70.498 0 35.249 26.623 0 1 0 70.498 0" stroke="#a1c9e2"/>
  <path d="m1218.3 106.99a35.248 26.623 0 1 0 -70.496 0 35.248 26.623 0 1 0 70.496 0" stroke="#a1c9e2"/>
  <path d="m1282.3 102.36a35.248 26.623 0 1 0 -70.496 0 35.248 26.623 0 1 0 70.496 0" stroke="#a1c9e2"/>
  <path d="m1317.5 102.36a35.249 26.623 0 1 0 -70.498 0 35.249 26.623 0 1 0 70.498 0" stroke="#a1c9e2"/>
  <path d="m1325.8 80.376a128.24 33.748 0 1 0 -256.49 0 128.24 33.748 0 1 0 256.49 0"/>
 </g>
 <path d="m261.7 125.6a85.495 85.495 0 1 0 -170.99 0 85.495 85.495 0 1 0 170.99 0" fill="#f4b71e"/>
 <path d="m240.21 125.1a62.997 62.997 0 1 0 -125.99 0 62.997 62.997 0 1 0 125.99 0" fill="#f28420"/>
</svg>
