<?xml version="1.0" encoding="utf-8"?>
<!-- Generator: Adobe Illustrator 16.0.0, SVG Export Plug-In . SVG Version: 6.00 Build 0)  -->
<!DOCTYPE svg PUBLIC "-//W3C//DTD SVG 1.1//EN" "http://www.w3.org/Graphics/SVG/1.1/DTD/svg11.dtd">
<svg version="1.1" id="Layer_1" xmlns="http://www.w3.org/2000/svg" xmlns:xlink="http://www.w3.org/1999/xlink" x="0px" y="0px"
	 width="220px" height="150px" viewBox="0 0 220 150" enable-background="new 0 0 220 150" xml:space="preserve">
<g>
	<rect x="39.933" y="79.342" fill="#020202" width="142.59" height="70.656"/>
	<rect x="129.342" y="96.334" fill="#4A3939" width="33.567" height="53.666"/>
	<rect x="129.342" y="96.334" fill="#4A3939" width="33.567" height="53.666"/>
	<path fill="#B75928" stroke="#24120D" stroke-width="0.84" d="M149.82,42.494c0,20.339-16.577,36.848-37.056,36.848
		c-20.478,0-37.054-16.508-37.054-36.848S92.287,5.647,112.765,5.647C133.243,5.647,149.82,22.153,149.82,42.494L149.82,42.494z"/>
	<polygon fill="#D25A27" points="39.933,114.531 39.933,79.446 111.212,79.446 182.523,79.446 182.523,114.531 182.523,149.653 
		111.212,149.653 39.933,149.653 	"/>
	
		<rect x="56.06" y="98.543" fill="#FFCE0C" stroke="#B12025" stroke-width="3" stroke-linejoin="round" width="43.203" height="29.63"/>
	<rect x="129.342" y="96.334" fill="#4A3939" width="33.567" height="53.666"/>
	<rect x="135.006" y="104.206" fill="#917171" width="27.903" height="45.792"/>
	<path fill="#2D2616" d="M153.31,112.046c0,3.868-3.004,6.977-6.734,6.977c-3.765,0-6.769-3.108-6.769-6.977
		c0-3.869,3.004-6.976,6.769-6.976C150.306,105.07,153.31,108.177,153.31,112.046L153.31,112.046z"/>
	<rect x="150.27" y="121.199" fill="#2D2616" width="10.016" height="5.248"/>
	<rect x="75.71" y="40.974" fill="#81371B" width="74.11" height="38.817"/>
	<path fill="#ECECEC" stroke="#261010" stroke-width="0.54" d="M123.678,41.39c0,5.803-4.801,10.464-10.705,10.464
		c-5.905,0-10.671-4.662-10.671-10.464c0-5.767,4.765-10.464,10.671-10.464C118.878,30.925,123.678,35.622,123.678,41.39
		L123.678,41.39z"/>
	<path fill="#E3DBDB" stroke="#261010" stroke-width="0.72" d="M119.638,41.527c0,3.592-3.039,6.528-6.767,6.528
		c-3.731,0-6.771-2.936-6.771-6.528c0-3.626,3.039-6.562,6.771-6.562C116.599,34.966,119.638,37.901,119.638,41.527L119.638,41.527z
		"/>
	<path fill="#801518" stroke="#B12025" stroke-width="0.84" stroke-linejoin="round" d="M55.163,85.869c0,1.45-1.141,2.59-2.59,2.59
		c-1.417,0-2.556-1.139-2.556-2.59c0-1.415,1.139-2.59,2.556-2.59C54.022,83.279,55.163,84.454,55.163,85.869L55.163,85.869z"/>
	<path fill="#801518" stroke="#B12025" stroke-width="0.84" stroke-linejoin="round" d="M71.843,85.869
		c0,1.45-1.139,2.59-2.591,2.59c-1.416,0-2.59-1.139-2.59-2.59c0-1.415,1.174-2.59,2.59-2.59
		C70.704,83.279,71.843,84.454,71.843,85.869L71.843,85.869z"/>
	<path fill="#801518" stroke="#B12025" stroke-width="0.84" stroke-linejoin="round" d="M88.868,85.767
		c0,1.449-1.174,2.59-2.59,2.59c-1.45,0-2.59-1.14-2.59-2.59c0-1.415,1.139-2.59,2.59-2.59
		C87.694,83.177,88.868,84.35,88.868,85.767L88.868,85.767z"/>
	<path fill="#801518" stroke="#B12025" stroke-width="0.84" stroke-linejoin="round" d="M104.339,85.767
		c0,1.449-1.14,2.59-2.591,2.59c-1.415,0-2.59-1.14-2.59-2.59c0-1.415,1.175-2.59,2.59-2.59
		C103.2,83.177,104.339,84.35,104.339,85.767L104.339,85.767z"/>
	<path fill="#801518" stroke="#B12025" stroke-width="0.84" stroke-linejoin="round" d="M121.122,85.835
		c0,1.415-1.139,2.59-2.59,2.59c-1.415,0-2.591-1.175-2.591-2.59c0-1.451,1.176-2.59,2.591-2.59
		C119.983,83.245,121.122,84.384,121.122,85.835L121.122,85.835z"/>
	<path fill="#801518" stroke="#B12025" stroke-width="0.84" stroke-linejoin="round" d="M138.148,85.73
		c0,1.416-1.175,2.59-2.592,2.59c-1.448,0-2.59-1.174-2.59-2.59c0-1.45,1.141-2.59,2.59-2.59
		C136.974,83.143,138.148,84.28,138.148,85.73L138.148,85.73z"/>
	<path fill="#801518" stroke="#B12025" stroke-width="0.84" stroke-linejoin="round" d="M155.139,85.73
		c0,1.416-1.139,2.59-2.591,2.59c-1.416,0-2.59-1.174-2.59-2.59c0-1.45,1.174-2.59,2.59-2.59
		C154,83.143,155.139,84.28,155.139,85.73L155.139,85.73z"/>
	<path fill="#801518" stroke="#B12025" stroke-width="0.84" stroke-linejoin="round" d="M173.233,85.73
		c0,1.416-1.138,2.59-2.59,2.59c-1.414,0-2.59-1.174-2.59-2.59c0-1.45,1.176-2.59,2.59-2.59
		C172.096,83.143,173.233,84.28,173.233,85.73L173.233,85.73z"/>
</g>
<g>
</g>
<g>
</g>
<g>
</g>
<g>
</g>
<g>
</g>
<g>
</g>
</svg>
