<?xml version="1.0" encoding="utf-8"?>
<!-- Generator: Adobe Illustrator 16.0.0, SVG Export Plug-In . SVG Version: 6.00 Build 0)  -->
<!DOCTYPE svg PUBLIC "-//W3C//DTD SVG 1.1//EN" "http://www.w3.org/Graphics/SVG/1.1/DTD/svg11.dtd">
<svg version="1.1" id="Layer_1" xmlns="http://www.w3.org/2000/svg" xmlns:xlink="http://www.w3.org/1999/xlink" x="0px" y="0px"
	 width="27px" height="57px" viewBox="0 0 27 57" enable-background="new 0 0 27 57" xml:space="preserve">
<g>
	<path fill="#A81E32" d="M13.219,0.748c-4.384,0-7.938,3.666-7.938,8.188c0,2.476,1.068,4.688,2.75,6.188v-0.092h10.474
		c1.624-1.499,2.651-3.671,2.651-6.097C21.156,4.414,17.604,0.748,13.219,0.748z"/>
	<rect x="8.031" y="6.508" fill="#F7EBD7" width="10.228" height="8.523"/>
	<polygon fill="#E8D3D1" points="15.844,20.713 10.872,20.713 10.872,17.872 10.872,15.031 15.844,15.031 	"/>
	<rect x="0.36" y="51.71" fill="#503718" width="7.671" height="2.614"/>
	<rect x="0.36" y="53.824" fill="#322012" width="7.671" height="2.813"/>
	<rect x="18.673" y="51.909" fill="#503718" width="7.671" height="2.614"/>
	<rect x="18.673" y="54.023" fill="#322012" width="7.671" height="2.813"/>
	<polygon fill="#AF3425" stroke="#010101" stroke-miterlimit="10" points="5.475,17.872 0.361,23.838 0.361,29.164 5.475,29.164 
		5.475,26.537 8.031,26.111 8.031,37.189 2.775,40.6 2.917,51.82 8.031,51.82 8.031,43.582 13.357,40.457 18.259,43.298 
		18.259,51.82 23.939,51.82 23.939,40.741 18.259,37.616 18.259,26.395 21.1,26.253 21.384,29.164 26.641,29.164 26.641,23.555 
		21.1,17.872 15.844,17.872 15.844,20.713 10.872,20.713 10.872,17.872 	"/>
	<rect x="0.361" y="29.664" fill="#EFD2D0" width="4.92" height="2.709"/>
	<rect x="21.719" y="29.664" fill="#EFD2D0" width="4.922" height="2.709"/>
	<rect x="0.36" y="32.139" fill="#FFFFFF" width="4.921" height="2.709"/>
	<rect x="21.719" y="32.139" fill="#FFFFFF" width="4.922" height="2.709"/>
</g>
<g>
</g>
<g>
</g>
<g>
</g>
<g>
</g>
<g>
</g>
<g>
</g>
</svg>
